<svg width="24" height="24" viewBox="0 0 24 24" fill="none" xmlns="http://www.w3.org/2000/svg">
<g clip-path="url(#clip0_884_18799)">
<path d="M14.121 10.4799C13.9334 10.2924 13.6791 10.1871 13.414 10.1871C13.1488 10.1871 12.8945 10.2924 12.707 10.4799L12 11.1859C11.8155 11.3769 11.5948 11.5293 11.3508 11.6341C11.1068 11.7389 10.8443 11.7941 10.5788 11.7964C10.3132 11.7987 10.0498 11.7481 9.80405 11.6475C9.55826 11.5469 9.33496 11.3984 9.14717 11.2107C8.95938 11.0229 8.81088 10.7996 8.71032 10.5538C8.60975 10.308 8.55915 10.0446 8.56146 9.77906C8.56377 9.51351 8.61894 9.25107 8.72376 9.00706C8.82857 8.76305 8.98094 8.54236 9.17196 8.35787L14.802 2.72587C16.1349 2.42269 17.5295 2.54746 18.7874 3.08244C20.0453 3.61742 21.1026 4.53536 21.8088 5.70576C22.5151 6.87615 22.8344 8.23941 22.7213 9.6017C22.6082 10.964 22.0685 12.2559 21.179 13.2939L19.071 15.4289L14.121 10.4789V10.4799ZM3.16096 4.46787C4.19572 3.43324 5.54918 2.77785 7.00252 2.60763C8.45586 2.43742 9.92414 2.76234 11.17 3.52987L7.75696 6.94387C7.01776 7.68159 6.59639 8.67917 6.5829 9.72343C6.5694 10.7677 6.96485 11.7758 7.68474 12.5324C8.40463 13.289 9.39187 13.734 10.4355 13.7724C11.4792 13.8108 12.4964 13.4395 13.27 12.7379L13.414 12.6009L17.657 16.8429L13.414 21.0859C13.0389 21.4608 12.5303 21.6714 12 21.6714C11.4696 21.6714 10.961 21.4608 10.586 21.0859L3.15996 13.6599C1.94109 12.4409 1.25635 10.7877 1.25635 9.06387C1.25635 7.34005 1.94109 5.68684 3.15996 4.46787H3.16096Z" fill="#222222"/>
</g>
<defs>
<clipPath id="clip0_884_18799">
<rect width="24" height="24" fill="white"/>
</clipPath>
</defs>
</svg>
