<svg width="24" height="24" viewBox="0 0 24 24" fill="none" xmlns="http://www.w3.org/2000/svg">
<g clip-path="url(#clip0_884_18633)">
<path d="M5.5 12.0002H4V7.00024H2V5.00024H8V7.00024H6V9.79524L15.813 7.16624L15.233 5.00024H12V3.00024H15.978C16.2019 2.9953 16.4209 3.06565 16.6001 3.2C16.7792 3.33435 16.9081 3.52495 16.966 3.74124L18.519 9.53724L16.587 10.0542L16.331 9.09824L5.5 12.0002ZM5 19.0002C5.53043 19.0002 6.03914 18.7895 6.41421 18.4145C6.78929 18.0394 7 17.5307 7 17.0002C7 16.4698 6.78929 15.9611 6.41421 15.586C6.03914 15.211 5.53043 15.0002 5 15.0002C4.46957 15.0002 3.96086 15.211 3.58579 15.586C3.21071 15.9611 3 16.4698 3 17.0002C3 17.5307 3.21071 18.0394 3.58579 18.4145C3.96086 18.7895 4.46957 19.0002 5 19.0002ZM5 21.0002C3.93913 21.0002 2.92172 20.5788 2.17157 19.8287C1.42143 19.0785 1 18.0611 1 17.0002C1 15.9394 1.42143 14.922 2.17157 14.1718C2.92172 13.4217 3.93913 13.0002 5 13.0002C6.06087 13.0002 7.07828 13.4217 7.82843 14.1718C8.57857 14.922 9 15.9394 9 17.0002C9 18.0611 8.57857 19.0785 7.82843 19.8287C7.07828 20.5788 6.06087 21.0002 5 21.0002ZM18 19.0002C18.7956 19.0002 19.5587 18.6842 20.1213 18.1216C20.6839 17.559 21 16.7959 21 16.0002C21 15.2046 20.6839 14.4415 20.1213 13.8789C19.5587 13.3163 18.7956 13.0002 18 13.0002C17.2044 13.0002 16.4413 13.3163 15.8787 13.8789C15.3161 14.4415 15 15.2046 15 16.0002C15 16.7959 15.3161 17.559 15.8787 18.1216C16.4413 18.6842 17.2044 19.0002 18 19.0002ZM18 21.0002C16.6739 21.0002 15.4021 20.4735 14.4645 19.5358C13.5268 18.5981 13 17.3263 13 16.0002C13 14.6742 13.5268 13.4024 14.4645 12.4647C15.4021 11.527 16.6739 11.0002 18 11.0002C19.3261 11.0002 20.5979 11.527 21.5355 12.4647C22.4732 13.4024 23 14.6742 23 16.0002C23 17.3263 22.4732 18.5981 21.5355 19.5358C20.5979 20.4735 19.3261 21.0002 18 21.0002Z" fill="#222222"/>
</g>
<defs>
<clipPath id="clip0_884_18633">
<rect width="24" height="24" fill="white"/>
</clipPath>
</defs>
</svg>
