<svg width="24" height="24" viewBox="0 0 24 24" fill="none" xmlns="http://www.w3.org/2000/svg">
<g clip-path="url(#clip0_884_18636)">
<path d="M5.5 12.0002H4V7.00024H2V5.00024H8V7.00024H6V9.79524L15.813 7.16624L15.233 5.00024H12V3.00024H15.978C16.2019 2.9953 16.4209 3.06565 16.6001 3.2C16.7792 3.33435 16.9081 3.52495 16.966 3.74124L18.519 9.53724L16.587 10.0542L16.331 9.09824L5.5 12.0002ZM5 21.0002C3.93913 21.0002 2.92172 20.5788 2.17157 19.8287C1.42143 19.0785 1 18.0611 1 17.0002C1 15.9394 1.42143 14.922 2.17157 14.1718C2.92172 13.4217 3.93913 13.0002 5 13.0002C6.06087 13.0002 7.07828 13.4217 7.82843 14.1718C8.57857 14.922 9 15.9394 9 17.0002C9 18.0611 8.57857 19.0785 7.82843 19.8287C7.07828 20.5788 6.06087 21.0002 5 21.0002ZM5 18.0002C5.26522 18.0002 5.51957 17.8949 5.70711 17.7074C5.89464 17.5198 6 17.2655 6 17.0002C6 16.735 5.89464 16.4807 5.70711 16.2931C5.51957 16.1056 5.26522 16.0002 5 16.0002C4.73478 16.0002 4.48043 16.1056 4.29289 16.2931C4.10536 16.4807 4 16.735 4 17.0002C4 17.2655 4.10536 17.5198 4.29289 17.7074C4.48043 17.8949 4.73478 18.0002 5 18.0002ZM18 21.0002C16.6739 21.0002 15.4021 20.4735 14.4645 19.5358C13.5268 18.5981 13 17.3263 13 16.0002C13 14.6742 13.5268 13.4024 14.4645 12.4647C15.4021 11.527 16.6739 11.0002 18 11.0002C19.3261 11.0002 20.5979 11.527 21.5355 12.4647C22.4732 13.4024 23 14.6742 23 16.0002C23 17.3263 22.4732 18.5981 21.5355 19.5358C20.5979 20.4735 19.3261 21.0002 18 21.0002ZM18 17.0002C18.2652 17.0002 18.5196 16.8949 18.7071 16.7074C18.8946 16.5198 19 16.2655 19 16.0002C19 15.735 18.8946 15.4807 18.7071 15.2931C18.5196 15.1056 18.2652 15.0002 18 15.0002C17.7348 15.0002 17.4804 15.1056 17.2929 15.2931C17.1054 15.4807 17 15.735 17 16.0002C17 16.2655 17.1054 16.5198 17.2929 16.7074C17.4804 16.8949 17.7348 17.0002 18 17.0002Z" fill="#222222"/>
</g>
<defs>
<clipPath id="clip0_884_18636">
<rect width="24" height="24" fill="white"/>
</clipPath>
</defs>
</svg>
